HIERARCHY
ROOT pelvis
{
  OFFSET 0 100 0
  CHANNELS 6 Xposition Yposition Zposition Zrotation Xrotation Yrotation
  JOINT pelvis_right_femur
  {
    OFFSET -10.78128 -3.44521 -0.5502486
    CHANNELS 3 Zrotation Xrotation Yrotation
    JOINT right_femur_tibia
    {
      OFFSET -0.8047443 -44.0398 -0.1307829
      CHANNELS 3 Zrotation Xrotation Yrotation
      JOINT right_tibia_foot
      {
        OFFSET 3.006224 -47.83518 -5
        CHANNELS 3 Zrotation Xrotation Yrotation
        End Site
        {
          OFFSET 0 -5 15
        }
      }
    }
  }
  JOINT pelvis_left_femur
  {
    OFFSET 10.78128 -3.44521 -0.5502486
    CHANNELS 3 Zrotation Xrotation Yrotation
    JOINT left_femur_tibia
    {
      OFFSET 0.8047443 -44.0398 -0.1307829
      CHANNELS 3 Zrotation Xrotation Yrotation
      JOINT left_tibia_foot
      {
        OFFSET -4.370144 -48.10324 -4.275266
        CHANNELS 3 Zrotation Xrotation Yrotation
        End Site
        {
          OFFSET 0 -5 15
        }
      }
    }
  }
  JOINT pelvis_spine1
  {
    OFFSET 0 6.468898 -3.129235
    CHANNELS 3 Zrotation Xrotation Yrotation
    JOINT spine1
    {
      OFFSET 0 23.15396 4.99043
      CHANNELS 3 Zrotation Xrotation Yrotation
      JOINT spine2
      {
        OFFSET 0 20.79997 -5.064912
        CHANNELS 3 Zrotation Xrotation Yrotation
        JOINT neck
        {
          OFFSET 0 14.38658 9.616178
          CHANNELS 3 Zrotation Xrotation Yrotation
          End Site
          {
            OFFSET 0 20 0
          }
        }
      }
      JOINT right_manubrium
      {
        OFFSET -5.722621 16.35077 3.967754
        CHANNELS 3 Zrotation Xrotation Yrotation
        JOINT right_clavicle
        {
          OFFSET -13.16364 1.694482 -4.693211
          CHANNELS 3 Zrotation Xrotation Yrotation
          JOINT right_humerus
          {
            OFFSET -28.5034 -0.3100689 -2.792744
            CHANNELS 3 Zrotation Xrotation Yrotation
            JOINT right_radius
            {
              OFFSET -25.15693 0.02248979 -1.271978
              CHANNELS 3 Zrotation Xrotation Yrotation
              End Site
              {
                OFFSET -15 0 0
              }
            }
          }
        }
      }
      JOINT left_manubrium
      {
        OFFSET 5.722621 16.35077 3.967754
        CHANNELS 3 Zrotation Xrotation Yrotation
        JOINT left_clavicle
        {
          OFFSET 13.16364 1.694482 -4.693211
          CHANNELS 3 Zrotation Xrotation Yrotation
          JOINT left_humerus
          {
            OFFSET 29.39168 -1.063119 -2.237045
            CHANNELS 3 Zrotation Xrotation Yrotation
            JOINT left_radius
            {
              OFFSET 24.59957 -0.9528479 0.9047498
              CHANNELS 3 Zrotation Xrotation Yrotation
              End Site
              {
                OFFSET 15 -0 -0
              }
            }
          }
        }
      }
    }
  }
}
MOTION
Frames: 11
Frame Time: 0.0416666666667
194.3572 105.8054 3139.238 1.056837 -7.999825 0.1439599 4.696175 4.465413 5.608247 -0 12.7713 -0 -2.159306 -9.812093 -5.098088 -1.369397 -12.68659 -5.28759 -0 53.67706 -0 -7.70484 -6.635618 17.75658 1.790384 -4.538925 7.515638 -0.009290841 17.1879 -5.227171 2.095179 18.6977 1.288687 -0.8235361 -20.18636 5.157269 -2.425957 -32.27985 12.42682 89.03556 13.11362 -8.290763 -0 0 29.93268 -25.38015 19.82286 18.36948 1.926043 -21.957 -7.717368 -96.17462 12.85426 37.65277 0 0 -9.585479 3.057545 14.35477 10.29253
194.4688 105.7975 3144.904 0.9645702 -7.865734 -0.5767823 4.586671 8.525625 5.421627 -0 11.47215 -0 -1.777362 -11.82232 -4.136931 0.15078 -18.17465 -4.067834 -0 45.26015 -0 -7.156123 -6.649489 18.78808 1.781026 -4.549251 7.523443 -0.003796252 17.15931 -5.216948 2.089715 18.67316 1.285899 -0.8343027 -20.20201 5.15624 -2.414284 -32.32415 12.41698 88.97584 13.12271 -8.206487 -0 0 30.03398 -25.37979 19.84284 18.42088 1.928434 -21.92254 -7.685255 -96.19809 12.83845 37.72043 0 0 -9.560441 3.023276 14.33035 10.33248
194.7024 105.233 3150.623 0.5449022 -7.256178 -1.360887 4.688121 11.53042 5.061497 -0 10.88563 -0 -1.524046 -13.60587 -3.068382 1.598539 -22.3491 -2.991871 -0 35.70302 -0 -6.501507 -6.542341 19.53925 1.772161 -4.556613 7.529354 -0.0007492607 17.1351 -5.207006 2.085586 18.65545 1.285967 -0.8412705 -20.21527 5.156766 -2.406383 -32.35619 12.40794 88.92943 13.13191 -8.139301 -0 0 30.10796 -25.38038 19.85243 18.4619 1.931195 -21.89459 -7.659162 -96.21661 12.82796 37.77207 0 0 -9.541535 2.994973 14.30935 10.36764
195.0648 104.3006 3156.51 0.1294302 -6.400963 -2.138005 4.563348 13.90131 4.573682 -0 11.25702 -0 -1.241733 -14.9849 -2.009719 2.343547 -25.09619 -2.533629 -0 27.34426 -0 -6.086875 -6.566651 19.91919 1.7644 -4.560393 7.532993 -0.0004653518 17.117 -5.197953 2.083119 18.6459 1.288917 -0.8439326 -20.22522 5.158861 -2.402955 -32.37366 12.40029 88.89978 13.14068 -8.093954 -0 0 30.1492 -25.38185 19.85069 18.48958 1.934068 -21.87507 -7.640975 -96.22891 12.82365 37.80416 0 0 -9.530073 2.974456 14.29309 10.39589
195.5315 103.2184 3162.665 -0.0515051 -5.661713 -2.839355 3.982167 16.00005 4.082628 -0 12.79962 -0 -0.9081818 -15.52665 -1.14334 2.151347 -26.47314 -2.846334 -0 21.45505 -0 -5.984845 -6.817045 20.09966 1.758149 -4.560402 7.53417 -0.00297179 17.10606 -5.190256 2.082455 18.64502 1.294579 -0.842141 -20.23129 5.162411 -2.404096 -32.37567 12.39446 88.8884 13.14856 -8.072797 -0 0 30.15557 -25.38417 19.83781 18.50251 1.936886 -21.86504 -7.631694 -96.2344 12.82576 37.81508 0 0 -9.526459 2.962812 14.28249 10.41574
196.0702 102.1889 3169.155 0.05780336 -5.333099 -3.414803 2.984251 17.83671 3.674196 -0 15.75446 -0 -0.6739571 -14.68436 -0.6047472 1.161049 -26.56178 -3.775143 -0 18.2681 -0 -5.968683 -7.239429 20.23287 1.753626 -4.556853 7.532892 -0.008012402 17.10261 -5.184252 2.083551 18.65252 1.302586 -0.8361195 -20.23329 5.167173 -2.409377 -32.36272 12.39077 88.89497 13.15518 -8.075868 -0 0 30.12814 -25.3873 19.81504 18.50071 1.939555 -21.8647 -7.631442 -96.23316 12.83391 37.80504 0 0 -9.53033 2.960382 14.27798 10.42636
196.6635 101.3979 3175.992 0.4024075 -5.515184 -3.804804 1.764999 19.06936 3.426616 -0 20.37974 -0 -0.6065468 -12.0397 -0.4609447 -0.3000274 -25.41057 -4.995943 -0 17.37655 -0 -5.728417 -7.718365 20.29566 1.750906 -4.550227 7.529319 -0.01513579 17.10642 -5.180161 2.086228 18.66754 1.312433 -0.8263748 -20.23136 5.172824 -2.418056 -32.33632 12.38935 88.91784 13.16026 -8.10147 -0 0 30.07037 -25.39113 19.78433 18.48527 1.942027 -21.8736 -7.639665 -96.22572 12.84729 37.77568 0 0 -9.540843 2.966889 14.27961 10.42751
197.3153 101.0203 3183.104 0.8807599 -6.095297 -3.930314 0.5836633 19.13976 3.387755 -0 26.7994 -0 -0.5912153 -7.590274 -0.7203792 -1.889305 -23.04924 -6.177395 -0 18.03756 -0 -5.076213 -8.176006 20.13636 1.749964 -4.54113 7.523707 -0.02380727 17.11684 -5.178094 2.090229 18.68886 1.323565 -0.8135666 -20.22581 5.17902 -2.429285 -32.29857 12.39019 88.95466 13.16362 -8.14689 -0 0 29.98699 -25.39554 19.74786 18.4579 1.944281 -21.8908 -7.655399 -96.21286 12.86487 37.72948 0 0 -9.55696 2.981633 14.28709 10.41944
198.0353 101.1954 3190.316 1.369383 -6.809142 -3.716051 -0.2842121 17.4776 3.492667 -0 34.70053 -0 -0.4720178 -2.026988 -1.348561 -3.347389 -19.56003 -7.106997 -0 19.32602 -0 -4.053223 -8.651846 19.63529 1.750715 -4.530186 7.51637 -0.03349191 17.13301 -5.178071 2.095275 18.71518 1.335442 -0.7984087 -20.21708 5.185437 -2.442261 -32.25175 12.39318 89.0028 13.16515 -8.208959 -0 0 29.88318 -25.40036 19.70773 18.42057 1.946307 -21.91515 -7.677478 -96.19545 12.88557 37.66927 0 0 -9.57763 3.003649 14.29989 10.40277
198.8084 101.955 3197.363 1.724922 -7.379681 -3.133163 -0.6298315 13.76473 3.544661 -0 43.01192 -0 -0.290356 3.235639 -2.2477 -4.509809 -15.16534 -7.739332 -0 20.27929 -0 -2.902277 -9.298898 18.85874 1.753039 -4.517987 7.507655 -0.04368336 17.15395 -5.180045 2.10108 18.74512 1.347543 -0.7816359 -20.2057 5.191779 -2.456278 -32.19822 12.39813 89.05965 13.16484 -8.284325 -0 0 29.76425 -25.40538 19.66589 18.37532 1.948081 -21.94534 -7.704653 -96.17438 12.90834 37.59808 0 0 -9.601854 3.031802 14.31732 10.37839
199.5824 103.1396 3203.98 1.812364 -7.699269 -2.232415 -0.4523055 8.176466 3.347728 -0 49.88403 -0 -0.3611673 6.604811 -3.229731 -5.262487 -10.23921 -8.144732 -0 20.17731 -0 -1.916919 -10.2674 18.04337 1.756817 -4.50512 7.497962 -0.0538819 17.17857 -5.183929 2.107355 18.77726 1.359318 -0.7640387 -20.19223 5.197748 -2.470696 -32.1405 12.40476 89.12247 13.1627 -8.369416 -0 0 29.63583 -25.41036 19.62427 18.32432 1.949553 -21.97993 -7.735589 -96.15059 12.93207 37.51923 0 0 -9.628627 3.064774 14.33854 10.34743
